<mxfile host="" modified="2021-02-27T17:27:52.387Z" agent="5.0 (Windows NT 6.2; Win64; x64) AppleWebKit/537.36 (KHTML, like Gecko) Chrome/84.0.4147.105 Safari/537.36" etag="gClTpCuieFaznBMMMwMN" version="13.7.9" type="embed"><diagram id="kd2ZDgIoRG4ljhDf4ZuD" name="Page-1"><mxGraphModel dx="984" dy="433" grid="1" gridSize="10" guides="1" tooltips="1" connect="1" arrows="1" fold="1" page="1" pageScale="1" pageWidth="827" pageHeight="1169" math="0" shadow="0"><root><mxCell id="0"/><mxCell id="1" parent="0"/><mxCell id="rGL50mZiQ5djAP73_Ivw-3" value="Folder" style="swimlane;fontStyle=1;align=center;verticalAlign=top;childLayout=stackLayout;horizontal=1;startSize=26;horizontalStack=0;resizeParent=1;resizeParentMax=0;resizeLast=0;collapsible=1;marginBottom=0;" parent="1" vertex="1"><mxGeometry x="70" y="50" width="310" height="104" as="geometry"><mxRectangle x="254" y="220" width="60" height="26" as="alternateBounds"/></mxGeometry></mxCell><mxCell id="rGL50mZiQ5djAP73_Ivw-4" value="name: String" style="text;strokeColor=none;fillColor=none;align=left;verticalAlign=top;spacingLeft=4;spacingRight=4;overflow=hidden;rotatable=0;points=[[0,0.5],[1,0.5]];portConstraint=eastwest;" parent="rGL50mZiQ5djAP73_Ivw-3" vertex="1"><mxGeometry y="26" width="310" height="26" as="geometry"/></mxCell><mxCell id="rGL50mZiQ5djAP73_Ivw-7" value="files: List&lt;File&gt;" style="text;strokeColor=none;fillColor=none;align=left;verticalAlign=top;spacingLeft=4;spacingRight=4;overflow=hidden;rotatable=0;points=[[0,0.5],[1,0.5]];portConstraint=eastwest;" parent="rGL50mZiQ5djAP73_Ivw-3" vertex="1"><mxGeometry y="52" width="310" height="26" as="geometry"/></mxCell><mxCell id="rGL50mZiQ5djAP73_Ivw-8" value="folders: List&lt;Folder&gt;" style="text;strokeColor=none;fillColor=none;align=left;verticalAlign=top;spacingLeft=4;spacingRight=4;overflow=hidden;rotatable=0;points=[[0,0.5],[1,0.5]];portConstraint=eastwest;" parent="rGL50mZiQ5djAP73_Ivw-3" vertex="1"><mxGeometry y="78" width="310" height="26" as="geometry"/></mxCell><mxCell id="2" value="" style="endArrow=classic;html=1;exitX=1;exitY=0.5;exitDx=0;exitDy=0;entryX=1.006;entryY=-0.077;entryDx=0;entryDy=0;entryPerimeter=0;" edge="1" parent="rGL50mZiQ5djAP73_Ivw-3" source="rGL50mZiQ5djAP73_Ivw-8" target="rGL50mZiQ5djAP73_Ivw-7"><mxGeometry width="50" height="50" relative="1" as="geometry"><mxPoint x="340" y="40" as="sourcePoint"/><mxPoint x="390" y="-10" as="targetPoint"/><Array as="points"><mxPoint x="370" y="91"/><mxPoint x="370" y="50"/></Array></mxGeometry></mxCell><mxCell id="rGL50mZiQ5djAP73_Ivw-24" value="&lt;p style=&quot;margin: 0px ; margin-top: 6px ; text-align: center&quot;&gt;&lt;b&gt;&amp;lt;&amp;lt;Enumeration&amp;gt;&amp;gt;&lt;/b&gt;&lt;/p&gt;&lt;p style=&quot;margin: 0px ; margin-top: 6px ; text-align: center&quot;&gt;&lt;b&gt;FileType&amp;nbsp;&lt;/b&gt;&lt;/p&gt;&lt;p style=&quot;margin: 0px ; margin-top: 6px ; text-align: center&quot;&gt;&lt;b&gt;&lt;br&gt;&lt;/b&gt;&lt;/p&gt;&lt;p style=&quot;margin: 0px ; margin-left: 8px&quot;&gt;TEXT&lt;/p&gt;&lt;p style=&quot;margin: 0px ; margin-left: 8px&quot;&gt;IMAGE&lt;/p&gt;&lt;p style=&quot;margin: 0px ; margin-left: 8px&quot;&gt;PDF&lt;/p&gt;" style="align=left;overflow=fill;html=1;dropTarget=0;" parent="1" vertex="1"><mxGeometry x="135" y="390" width="180" height="110" as="geometry"/></mxCell><mxCell id="rGL50mZiQ5djAP73_Ivw-36" value="" style="endArrow=open;endFill=1;endSize=12;html=1;exitX=0.505;exitY=1.154;exitDx=0;exitDy=0;exitPerimeter=0;entryX=0.5;entryY=0;entryDx=0;entryDy=0;" parent="1" source="rGL50mZiQ5djAP73_Ivw-27" target="rGL50mZiQ5djAP73_Ivw-24" edge="1"><mxGeometry width="160" relative="1" as="geometry"><mxPoint x="340" y="140" as="sourcePoint"/><mxPoint x="500" y="140" as="targetPoint"/><Array as="points"/></mxGeometry></mxCell><mxCell id="rGL50mZiQ5djAP73_Ivw-37" value="" style="line;strokeWidth=1;fillColor=none;align=left;verticalAlign=middle;spacingTop=-1;spacingLeft=3;spacingRight=3;rotatable=0;labelPosition=right;points=[];portConstraint=eastwest;" parent="1" vertex="1"><mxGeometry x="135" y="441" width="180" height="8" as="geometry"/></mxCell><mxCell id="rGL50mZiQ5djAP73_Ivw-41" value="" style="endArrow=open;endFill=1;endSize=12;html=1;entryX=0.5;entryY=0;entryDx=0;entryDy=0;exitX=0.5;exitY=1.115;exitDx=0;exitDy=0;exitPerimeter=0;" parent="1" target="rGL50mZiQ5djAP73_Ivw-9" edge="1" source="rGL50mZiQ5djAP73_Ivw-8"><mxGeometry width="160" relative="1" as="geometry"><mxPoint x="381" y="126" as="sourcePoint"/><mxPoint x="467" y="126" as="targetPoint"/></mxGeometry></mxCell><mxCell id="rGL50mZiQ5djAP73_Ivw-9" value="File" style="swimlane;fontStyle=1;align=center;verticalAlign=top;childLayout=stackLayout;horizontal=1;startSize=26;horizontalStack=0;resizeParent=1;resizeParentMax=0;resizeLast=0;collapsible=1;marginBottom=0;" parent="1" vertex="1"><mxGeometry x="120" y="210" width="210" height="130" as="geometry"/></mxCell><mxCell id="rGL50mZiQ5djAP73_Ivw-10" value="name: String" style="text;strokeColor=none;fillColor=none;align=left;verticalAlign=top;spacingLeft=4;spacingRight=4;overflow=hidden;rotatable=0;points=[[0,0.5],[1,0.5]];portConstraint=eastwest;" parent="rGL50mZiQ5djAP73_Ivw-9" vertex="1"><mxGeometry y="26" width="210" height="26" as="geometry"/></mxCell><mxCell id="rGL50mZiQ5djAP73_Ivw-17" value="extension: String" style="text;strokeColor=none;fillColor=none;align=left;verticalAlign=top;spacingLeft=4;spacingRight=4;overflow=hidden;rotatable=0;points=[[0,0.5],[1,0.5]];portConstraint=eastwest;" parent="rGL50mZiQ5djAP73_Ivw-9" vertex="1"><mxGeometry y="52" width="210" height="26" as="geometry"/></mxCell><mxCell id="rGL50mZiQ5djAP73_Ivw-26" value="fileType: FileType" style="text;strokeColor=none;fillColor=none;align=left;verticalAlign=top;spacingLeft=4;spacingRight=4;overflow=hidden;rotatable=0;points=[[0,0.5],[1,0.5]];portConstraint=eastwest;" parent="rGL50mZiQ5djAP73_Ivw-9" vertex="1"><mxGeometry y="78" width="210" height="26" as="geometry"/></mxCell><mxCell id="rGL50mZiQ5djAP73_Ivw-27" value="size: Double" style="text;strokeColor=none;fillColor=none;align=left;verticalAlign=top;spacingLeft=4;spacingRight=4;overflow=hidden;rotatable=0;points=[[0,0.5],[1,0.5]];portConstraint=eastwest;" parent="rGL50mZiQ5djAP73_Ivw-9" vertex="1"><mxGeometry y="104" width="210" height="26" as="geometry"/></mxCell></root></mxGraphModel></diagram></mxfile>